<svg xmlns="http://www.w3.org/2000/svg" xml:space="preserve" fill-rule="evenodd" stroke-linecap="round" stroke-linejoin="round" stroke-miterlimit="1.5" clip-rule="evenodd" viewBox="0 0 342 342"><path fill="url(#a)" stroke="#fff" stroke-width="2.2" d="M328 217 498 48l169 169-169 169-170-169Zm112-1 58 58 58-57-58-58-58 57Z" transform="translate(-327 -47)"/><path fill="url(#b)" d="M440 217H328L498 48l169 169H556l-58-58-58 57v1Z" transform="translate(-327 -47)"/><path fill="url(#c)" d="m443 331 55 55 90-90-145 35Z" transform="translate(-327 -47)"/><path fill="url(#d)" d="M386 160 498 48l75 74-187 38Z" transform="translate(-327 -47)"/><defs><linearGradient id="a" x1="0" x2="1" y1="0" y2="0" gradientTransform="matrix(0 -338 338 0 498 386)" gradientUnits="userSpaceOnUse"><stop offset="0" stop-color="#223646"/><stop offset=".5" stop-color="#395868"/><stop offset="1" stop-color="#435570"/></linearGradient><linearGradient id="b" x1="0" x2="1" y1="0" y2="0" gradientTransform="rotate(90 180 318) scale(69.6)" gradientUnits="userSpaceOnUse"><stop offset="0" stop-color="#fff" stop-opacity=".4"/><stop offset="1" stop-color="#b3b3b3" stop-opacity=".2"/></linearGradient><linearGradient id="c" x1="0" x2="1" y1="0" y2="0" gradientTransform="rotate(90 95 404) scale(76.6)" gradientUnits="userSpaceOnUse"><stop offset="0" stop-color="#fff" stop-opacity=".1"/><stop offset="1" stop-color="#b3b3b3" stop-opacity=".2"/></linearGradient><radialGradient id="d" cx="0" cy="0" r="1" gradientTransform="scale(-170.4) rotate(-58 -2 3)" gradientUnits="userSpaceOnUse"><stop offset="0" stop-color="#fff" stop-opacity=".1"/><stop offset="1" stop-color="#fff" stop-opacity=".2"/></radialGradient></defs></svg>